<?xml version="1.0" standalone="no"?>
<!DOCTYPE svg PUBLIC "-//W3C//DTD SVG 20010904//EN"
 "http://www.w3.org/TR/2001/REC-SVG-20010904/DTD/svg10.dtd">
<svg version="1.0" xmlns="http://www.w3.org/2000/svg"
 width="1000.000000pt" height="1080.000000pt" viewBox="0 0 1000.000000 1080.000000"
 preserveAspectRatio="xMidYMid meet">

<g transform="translate(0.000000,1080.000000) scale(0.100000,-0.100000)"
fill="#000000" stroke="none">
<path d="M3990 8154 c-113 -75 -211 -143 -217 -152 -7 -9 -13 -26 -13 -38 0
-28 20 -74 32 -74 5 0 126 80 270 177 l261 176 -27 24 c-54 46 -80 37 -306
-113z"/>
<path d="M4420 8243 c-35 -14 -688 -464 -694 -479 -3 -8 -6 -37 -6 -63 0 -52
-10 -65 -86 -113 -144 -92 -371 -176 -549 -204 -110 -17 -122 -17 -570 0 -37
1 -40 -1 -38 -26 1 -14 25 -86 54 -159 209 -531 562 -993 905 -1185 47 -26 71
-34 81 -28 8 5 34 68 58 139 109 329 259 591 491 858 87 100 127 115 191 76
33 -20 37 -21 66 -6 18 8 118 82 222 163 105 82 236 183 292 224 129 94 137
110 93 182 -104 171 -432 605 -467 619 -13 5 -25 9 -26 8 -1 0 -9 -3 -17 -6z
m-1702 -939 c28 -3 52 -10 52 -16 0 -21 121 -262 188 -376 168 -282 373 -525
554 -657 l28 -20 -27 -82 c-15 -46 -31 -83 -36 -83 -14 0 -109 65 -188 128
-262 211 -542 625 -697 1029 -18 45 -32 84 -32 86 0 4 66 0 158 -9z"/>
<path d="M4790 7342 c-19 -16 -113 -88 -207 -162 -95 -73 -173 -137 -173 -142
0 -5 17 -43 39 -86 21 -42 116 -243 211 -447 396 -848 706 -1453 977 -1900
167 -275 704 -1034 803 -1134 203 -205 377 -227 668 -84 107 52 200 131 231
197 61 124 -8 248 -214 386 -191 128 -342 268 -570 527 -746 849 -1320 1790
-1660 2723 -29 79 -57 146 -62 147 -4 1 -24 -10 -43 -25z"/>
<path d="M0 400 l0 -400 5000 0 5000 0 0 400 0 400 -5000 0 -5000 0 0 -400z
m2192 123 c23 -20 23 -57 1 -74 -15 -11 -16 -11 -5 1 27 31 11 72 -33 83 -19
4 -19 5 -1 6 11 0 28 -6 38 -16z m-69 -8 c-3 -9 -8 -14 -10 -11 -3 3 -2 9 2
15 9 16 15 13 8 -4z m-1760 -114 c22 -61 43 -108 47 -104 4 4 24 56 45 116 21
59 42 107 47 107 11 0 9 -5 -42 -149 -23 -64 -44 -107 -53 -109 -15 -3 -17 0
-67 143 -15 44 -31 88 -36 99 -5 13 -3 17 6 14 8 -2 32 -55 53 -117z m517 89
c0 -23 4 -30 20 -30 11 0 20 -4 20 -10 0 -5 -10 -10 -21 -10 -20 0 -21 -4 -17
-71 3 -55 8 -74 23 -85 23 -17 14 -29 -13 -15 -11 6 -22 25 -26 42 -10 51 -7
209 4 209 6 0 10 -13 10 -30z m515 16 c25 -11 33 -19 29 -30 -7 -19 -5 -19
-40 -1 -36 18 -55 19 -78 2 -28 -21 -9 -45 49 -62 87 -25 108 -74 54 -127 -29
-29 -33 -30 -90 -25 -68 6 -72 8 -64 29 5 13 12 14 40 5 50 -15 100 1 100 33
0 16 -8 28 -25 36 -87 40 -105 51 -108 67 -14 70 53 106 133 73z m105 -16 c0
-25 4 -30 25 -30 16 0 25 -6 25 -15 0 -9 -9 -15 -25 -15 -24 0 -25 -3 -25 -60
0 -55 2 -62 25 -72 14 -6 25 -15 25 -20 0 -18 -31 -20 -55 -4 -24 16 -25 20
-25 131 0 96 3 115 15 115 10 0 15 -10 15 -30z m482 -32 l3 -62 36 32 c20 18
45 32 55 32 14 0 9 -9 -21 -40 l-39 -40 42 -60 c40 -57 41 -60 20 -60 -16 0
-32 14 -53 45 -16 25 -33 45 -37 45 -5 0 -8 -20 -8 -45 0 -38 -3 -45 -20 -45
-19 0 -20 7 -20 130 0 122 1 130 20 130 16 0 19 -8 22 -62z m193 30 c1 -20 -2
-24 -11 -17 -8 7 -14 6 -17 -3 -3 -7 -6 2 -6 20 -1 27 3 33 17 30 11 -2 17
-13 17 -30z m-44 -35 c13 -16 12 -17 -3 -4 -17 13 -22 21 -14 21 2 0 10 -8 17
-17z m-1502 -19 c12 -15 21 -40 21 -55 0 -29 0 -29 -65 -29 -72 0 -83 -12 -44
-51 17 -17 30 -20 65 -16 43 4 59 -5 28 -17 -45 -17 -106 3 -123 41 -45 98 56
206 118 127z m191 16 c17 -11 10 -13 -40 -10 -47 2 -75 -28 -75 -80 0 -55 26
-80 82 -80 27 0 42 -4 38 -10 -9 -15 -78 -12 -102 5 -50 35 -50 135 0 170 24
17 74 20 97 5z m265 -13 c20 -16 28 -35 32 -69 5 -42 3 -50 -25 -78 -41 -41
-83 -41 -124 0 -28 28 -30 36 -25 78 9 82 84 119 142 69z m85 7 c0 -14 2 -14
22 0 24 17 38 20 38 9 0 -5 -14 -16 -30 -25 -29 -17 -30 -19 -30 -93 0 -43 -4
-75 -10 -75 -6 0 -10 40 -10 100 0 60 4 100 10 100 6 0 10 -7 10 -16z m537 1
c30 -21 44 -75 32 -120 -25 -88 -143 -88 -168 0 -20 72 20 135 84 135 17 0 40
-7 52 -15z m198 -5 c0 -10 -8 -14 -27 -12 -58 6 -91 -42 -67 -100 11 -28 36
-40 74 -35 12 1 20 -4 20 -13 0 -19 -48 -25 -85 -10 -63 26 -68 148 -6 179 31
15 91 9 91 -9z m5494 -83 c8 -26 17 -47 21 -47 4 0 13 21 21 47 8 25 20 48 26
50 13 5 -22 -113 -38 -131 -12 -14 -18 -5 -45 69 -16 44 -20 65 -12 63 7 -3
19 -26 27 -51z m641 43 c15 -10 13 -11 -29 -13 -35 -3 -36 -22 -2 -37 69 -28
36 -101 -33 -74 -27 10 -18 22 17 20 38 -1 43 19 8 37 -13 7 -29 19 -34 29
-22 34 34 63 73 38z m330 -25 c0 -35 16 -47 26 -20 4 8 13 15 22 15 13 0 13
-3 -2 -19 -16 -18 -16 -21 -1 -50 19 -38 8 -40 -22 -3 l-22 27 -1 -27 c0 -16
-4 -28 -10 -28 -6 0 -10 30 -10 70 0 40 4 70 10 70 6 0 10 -16 10 -35z m580
32 c0 -4 -34 -104 -45 -136 -3 -8 -8 -11 -11 -8 -8 7 38 147 48 147 4 0 8 -2
8 -3z m92 -14 c39 -35 8 -122 -44 -123 -10 0 -18 5 -18 10 0 6 9 10 20 10 10
0 24 9 31 21 9 18 8 20 -9 15 -38 -12 -68 44 -40 72 17 17 38 15 60 -5z m115
5 c14 -23 12 -106 -2 -118 -33 -27 -86 8 -70 46 4 11 7 27 6 37 -5 38 47 64
66 35z m93 -48 c0 -33 4 -60 10 -60 6 0 10 -4 10 -10 0 -5 -13 -10 -30 -10
-16 0 -30 5 -30 10 0 6 5 10 10 10 6 0 10 20 10 45 0 38 -2 43 -17 38 -16 -6
-16 -4 1 15 29 34 36 27 36 -38z m130 50 c0 -5 -11 -10 -25 -10 -15 0 -29 -8
-36 -22 -10 -18 -9 -20 6 -14 23 8 65 -19 65 -42 0 -41 -48 -56 -82 -25 -24
21 -23 64 3 97 20 25 69 37 69 16z m100 0 c0 -5 -11 -10 -25 -10 -32 0 -32
-16 -1 -24 27 -7 41 -35 31 -65 -7 -23 -37 -35 -65 -26 -31 10 -24 23 13 21
28 -1 32 2 32 24 0 21 -4 25 -30 24 -29 -1 -30 0 -27 32 4 31 7 34 38 34 19 0
34 -4 34 -10z m110 0 c0 -5 -11 -10 -25 -10 -32 0 -32 -16 -1 -24 27 -7 41
-35 31 -65 -7 -23 -37 -35 -65 -26 -31 10 -24 23 13 21 28 -1 32 2 32 24 0 22
-4 25 -33 23 -26 -1 -32 2 -28 14 3 8 6 23 6 34 0 15 7 19 35 19 19 0 35 -4
35 -10z m120 0 c0 -5 -11 -10 -25 -10 -14 0 -29 -8 -35 -20 -10 -19 -9 -20 13
-15 24 6 57 -15 57 -36 0 -44 -48 -63 -82 -32 -28 25 -19 92 16 115 16 11 56
10 56 -2z m-1609 -48 c-15 -5 -14 -59 2 -65 6 -2 9 -7 6 -11 -15 -17 -37 8
-41 47 -6 59 0 72 24 50 11 -10 15 -19 9 -21z m-361 13 c9 -10 9 -15 1 -15
-15 0 -14 -57 2 -63 6 -2 9 -8 4 -13 -12 -13 -34 18 -40 58 -7 49 8 64 33 33z
m-172 -7 c23 -23 13 -38 -24 -38 -46 0 -41 -23 7 -30 27 -4 30 -7 16 -13 -28
-11 -44 -9 -61 9 -32 31 -14 84 29 84 12 0 26 -5 33 -12z m109 5 c14 -6 10 -9
-17 -13 -29 -4 -35 -9 -35 -30 0 -21 5 -26 33 -28 36 -4 34 -22 -3 -22 -28 0
-55 24 -55 50 0 22 25 50 45 50 7 0 22 -3 32 -7z m177 -9 c21 -20 20 -43 -1
-66 -20 -22 -46 -23 -67 -2 -31 30 -9 84 34 84 10 0 26 -7 34 -16z m86 6 c0
-4 -7 -10 -15 -14 -9 -3 -15 -19 -15 -41 0 -19 -4 -35 -10 -35 -5 0 -10 22
-10 49 0 45 2 49 25 49 14 0 25 -4 25 -8z m274 -6 c21 -20 20 -43 -1 -66 -20
-22 -46 -23 -67 -2 -31 30 -9 84 34 84 10 0 26 -7 34 -16z m113 9 c14 -6 10
-9 -17 -13 -29 -4 -35 -9 -35 -30 0 -21 5 -26 33 -28 36 -4 34 -22 -3 -22 -28
0 -55 24 -55 50 0 22 25 50 45 50 7 0 22 -3 32 -7z m250 0 c14 -6 10 -9 -17
-13 -29 -4 -35 -9 -35 -30 0 -21 5 -26 33 -28 36 -4 34 -22 -3 -22 -28 0 -55
24 -55 50 0 22 25 50 45 50 7 0 22 -3 32 -7z m107 -9 c21 -20 20 -43 -1 -66
-20 -22 -46 -23 -67 -2 -31 30 -9 84 34 84 10 0 26 -7 34 -16z m113 4 c7 -5
14 -5 18 2 10 16 42 12 49 -6 10 -25 7 -84 -4 -84 -5 0 -10 18 -10 41 0 33 -3
40 -17 37 -13 -2 -19 -14 -21 -41 -4 -50 -22 -47 -22 4 0 36 -2 40 -22 37 -19
-2 -24 -10 -26 -40 -5 -55 -22 -46 -22 10 0 48 0 49 33 49 17 0 37 -4 44 -9z
m-327 -78 c0 -5 -4 -10 -10 -10 -5 0 -10 5 -10 10 0 6 5 10 10 10 6 0 10 -4
10 -10z"/>
<path d="M2150 500 c0 -5 5 -10 10 -10 6 0 10 5 10 10 0 6 -4 10 -10 10 -5 0
-10 -4 -10 -10z"/>
<path d="M536 418 c-28 -39 -21 -48 39 -48 59 0 67 9 45 51 -15 27 -64 25 -84
-3z"/>
<path d="M986 424 c-50 -50 -21 -144 44 -144 48 0 80 50 66 104 -13 53 -75 75
-110 40z"/>
<path d="M1616 408 c-32 -46 -8 -118 39 -118 28 0 55 34 55 70 0 36 -27 70
-55 70 -13 0 -31 -10 -39 -22z"/>
<path d="M8994 375 c-4 -9 -2 -21 4 -27 15 -15 44 -1 40 19 -4 23 -36 29 -44
8z"/>
<path d="M9112 373 c5 -26 38 -29 38 -4 0 15 -6 21 -21 21 -14 0 -19 -5 -17
-17z"/>
<path d="M9104 325 c-8 -21 10 -39 30 -32 22 9 20 24 -4 37 -16 9 -22 8 -26
-5z"/>
<path d="M9314 325 c-4 -9 -2 -21 4 -27 16 -16 47 -5 47 17 0 26 -42 34 -51
10z"/>
<path d="M9646 331 c-11 -18 6 -42 28 -39 29 4 29 42 -1 46 -11 2 -24 -1 -27
-7z"/>
<path d="M7515 340 c-4 -6 5 -10 19 -10 14 0 26 5 26 10 0 6 -9 10 -19 10 -11
0 -23 -4 -26 -10z"/>
<path d="M7794 336 c-10 -26 4 -48 28 -44 17 2 23 10 23 28 0 18 -6 26 -23 28
-13 2 -25 -3 -28 -12z"/>
<path d="M8154 336 c-10 -26 4 -48 28 -44 17 2 23 10 23 28 0 18 -6 26 -23 28
-13 2 -25 -3 -28 -12z"/>
<path d="M8624 336 c-10 -26 4 -48 28 -44 17 2 23 10 23 28 0 18 -6 26 -23 28
-13 2 -25 -3 -28 -12z"/>
</g>
</svg>
