<?xml version="1.0" standalone="no"?>
<!DOCTYPE svg PUBLIC "-//W3C//DTD SVG 20010904//EN"
 "http://www.w3.org/TR/2001/REC-SVG-20010904/DTD/svg10.dtd">
<svg version="1.0" xmlns="http://www.w3.org/2000/svg"
 width="900.000000pt" height="720.000000pt" viewBox="0 0 900.000000 720.000000"
 preserveAspectRatio="xMidYMid meet">

<g transform="translate(0.000000,720.000000) scale(0.100000,-0.100000)"
fill="#000000" stroke="none">
<path d="M3269 7172 c-24 -16 -97 -84 -162 -151 -118 -122 -119 -122 -140
-104 -12 10 -60 52 -107 94 -47 42 -95 81 -107 88 -12 6 -48 11 -81 11 -92 0
-184 -50 -298 -164 -74 -74 -99 -107 -134 -178 -35 -72 -43 -98 -44 -145 0
-33 6 -70 14 -85 9 -15 57 -70 109 -122 51 -52 91 -99 89 -105 -10 -29 -476
-505 -595 -608 -125 -108 -157 -130 -275 -189 l-133 -66 -225 -37 -225 -36 -7
-50 c-3 -28 -9 -122 -13 -210 -17 -369 66 -713 249 -1034 113 -197 158 -244
466 -483 186 -144 294 -217 364 -249 85 -37 585 -144 591 -126 2 7 8 66 15
132 13 147 68 323 228 743 l108 284 217 209 c119 115 220 209 225 209 12 0
465 -540 465 -555 0 -21 -2319 -2910 -2473 -3081 -84 -93 -159 -184 -167 -203
-39 -91 47 -212 288 -401 73 -58 164 -131 203 -163 225 -184 280 -227 370
-285 104 -69 194 -111 236 -112 35 0 81 30 122 81 55 68 124 196 153 282 l26
77 -37 283 -36 284 268 394 c225 330 323 462 603 814 301 378 1061 1275 1081
1275 20 0 796 -916 1090 -1286 270 -339 371 -476 594 -803 l268 -395 -36 -283
-37 -283 26 -76 c64 -192 195 -364 275 -364 42 1 132 43 236 112 90 58 145
101 370 285 39 32 130 105 203 163 241 189 327 310 288 401 -8 19 -84 111
-168 204 -114 127 -2434 3009 -2472 3071 -4 7 52 82 135 180 78 93 182 217
231 277 50 59 95 107 101 106 6 0 108 -95 227 -212 l217 -212 115 -305 c165
-439 203 -566 219 -725 13 -130 13 -130 38 -127 60 8 454 94 512 112 88 27
197 98 434 280 288 223 363 304 478 521 164 309 237 634 221 984 -4 88 -10
182 -13 210 l-7 50 -225 36 -225 36 -133 67 c-119 59 -149 81 -278 193 -123
106 -582 575 -593 605 -2 5 42 55 97 111 79 81 102 111 112 145 27 101 -38
240 -175 378 -113 114 -204 164 -297 164 -33 0 -69 -5 -81 -11 -12 -7 -60 -46
-107 -88 -47 -42 -95 -84 -107 -94 -21 -18 -22 -18 -140 104 -121 125 -190
179 -229 179 -25 0 -116 -80 -249 -221 -112 -117 -190 -207 -426 -489 -221
-266 -383 -452 -448 -515 l-41 -39 -41 39 c-66 65 -222 243 -444 510 -244 293
-329 390 -437 501 -141 147 -217 214 -241 214 -13 0 -43 -13 -68 -28z m1357
-1460 c71 -71 158 -153 193 -184 l64 -55 -48 -59 c-119 -147 -329 -394 -335
-394 -6 0 -216 247 -335 394 l-48 59 69 60 c49 43 285 276 310 306 1 0 59 -57
130 -127z m-3293 -444 c-6 -94 8 -145 92 -343 81 -190 140 -301 221 -412 175
-242 236 -311 334 -381 36 -26 92 -68 126 -93 84 -63 276 -159 414 -205 63
-22 116 -40 118 -40 2 -1 -19 -73 -47 -160 -31 -101 -52 -187 -57 -236 -3 -43
-10 -78 -14 -78 -15 0 -217 42 -325 67 -173 40 -213 63 -520 302 -221 171
-288 235 -358 339 -69 102 -169 314 -215 455 -65 196 -77 284 -77 564 0 133 2
244 5 247 5 4 258 51 296 55 8 1 10 -23 7 -81z m6507 52 c68 -12 127 -24 130
-26 3 -3 5 -114 5 -247 0 -280 -12 -368 -77 -564 -46 -141 -146 -353 -215
-455 -70 -104 -137 -168 -358 -339 -350 -271 -346 -269 -694 -340 -79 -16
-147 -29 -151 -29 -4 0 -11 35 -14 78 -5 49 -26 135 -57 236 -28 87 -49 159
-47 160 2 0 50 17 108 36 259 86 562 278 703 446 217 257 371 527 474 834 22
64 25 87 20 158 l-5 83 27 -5 c14 -3 82 -15 151 -26z m-3536 -208 l136 -163
-19 -27 c-11 -15 -35 -44 -53 -65 l-33 -38 -160 170 c-88 93 -161 175 -163
181 -3 7 24 41 59 76 60 60 64 63 80 47 9 -10 78 -91 153 -181z m686 64 c0
-10 -50 -66 -200 -221 -86 -89 -131 -149 -242 -320 l-137 -210 -106 -79 c-149
-110 -196 -156 -261 -249 -32 -45 -151 -206 -264 -357 -113 -151 -253 -340
-310 -420 -214 -301 -273 -372 -353 -433 -99 -74 -142 -118 -168 -170 -50 -98
-341 -525 -536 -784 -62 -83 -149 -210 -192 -281 -43 -71 -136 -215 -208 -318
-123 -179 -131 -194 -156 -286 -15 -54 -34 -144 -42 -200 -24 -162 -77 -328
-104 -328 -28 0 -308 236 -360 303 -71 93 -72 89 90 267 80 88 719 877 1481
1830 737 921 1476 1836 1641 2033 l301 358 63 -63 c35 -34 63 -67 63 -72z
m1236 -2443 c633 -792 1221 -1518 1309 -1616 88 -98 161 -184 163 -192 6 -26
-40 -98 -105 -161 -67 -67 -288 -244 -304 -244 -27 0 -79 165 -104 325 -16
110 -57 270 -79 313 -8 15 -45 70 -82 122 -82 115 -227 337 -272 417 -18 32
-98 146 -178 253 -215 290 -421 592 -546 804 -13 22 -66 72 -125 117 -91 71
-114 96 -225 247 -68 92 -153 208 -188 257 -36 50 -165 224 -287 388 -194 260
-222 301 -211 316 31 42 74 91 79 91 4 0 523 -647 1155 -1437z"/>
</g>
</svg>
