<?xml version="1.0" encoding="UTF-8"?>
<svg xmlns="http://www.w3.org/2000/svg" xmlns:xlink="http://www.w3.org/1999/xlink" width="150px" height="120px" viewBox="0 0 150 120" version="1.1">
<g id="surface1">
<path style=" stroke:none;fill-rule:evenodd;fill:rgb(96.470588%,96.470588%,96.470588%);fill-opacity:1;" d="M -0.0820312 -0.0820312 C 18.304688 -0.0820312 36.695312 -0.0820312 55.082031 -0.0820312 C 53.152344 1.402344 51.375 3.066406 49.75 4.917969 C 48.496094 3.800781 47.21875 2.71875 45.917969 1.667969 C 44.917969 1.332031 43.917969 1.332031 42.917969 1.667969 C 39.757812 3.183594 37.648438 5.601562 36.582031 8.917969 C 36.421875 9.210938 36.367188 9.542969 36.417969 9.917969 C 35.359375 9.917969 34.304688 9.917969 33.25 9.917969 C 33.25 11.027344 33.25 12.140625 33.25 13.25 C 34.359375 13.25 35.472656 13.25 36.582031 13.25 C 36.582031 14.359375 36.582031 15.472656 36.582031 16.582031 C 35.472656 16.582031 34.359375 16.582031 33.25 16.582031 C 33.25 17.695312 33.25 18.804688 33.25 19.917969 C 32.140625 19.917969 31.027344 19.917969 29.917969 19.917969 C 29.917969 21.027344 29.917969 22.140625 29.917969 23.25 C 28.804688 23.25 27.695312 23.25 26.582031 23.25 C 26.582031 24.359375 26.582031 25.472656 26.582031 26.582031 C 25.472656 26.582031 24.359375 26.582031 23.25 26.582031 C 23.203125 27.433594 23.257812 28.265625 23.417969 29.082031 C 20.917969 29.5 18.417969 29.917969 15.917969 30.332031 C 14.476562 39.148438 16.28125 47.230469 21.332031 54.582031 C 21.964844 55.382812 22.660156 56.132812 23.417969 56.832031 C 26.195312 58.945312 28.972656 61.054688 31.75 63.167969 C 32.777344 63.847656 33.886719 64.347656 35.082031 64.667969 C 37.832031 65.355469 40.609375 65.882812 43.417969 66.25 C 43.421875 64.855469 43.503906 63.46875 43.667969 62.082031 C 45.300781 56.953125 47.136719 51.898438 49.167969 46.917969 C 51.578125 44.671875 53.941406 42.367188 56.25 40 C 56.714844 39.957031 57.074219 40.148438 57.332031 40.582031 C 59.636719 43.492188 61.996094 46.351562 64.417969 49.167969 C 51.425781 65.402344 38.453125 81.652344 25.5 97.917969 C 23.652344 99.761719 21.933594 101.707031 20.332031 103.75 C 20.171875 104.621094 20.28125 105.457031 20.667969 106.25 C 21.347656 107.265625 22.152344 108.183594 23.082031 109 C 26.296875 111.492188 29.464844 114.046875 32.582031 116.667969 C 34.261719 117.929688 36.039062 119.015625 37.917969 119.917969 C 25.25 119.917969 12.582031 119.917969 -0.0820312 119.917969 C -0.0820312 79.917969 -0.0820312 39.917969 -0.0820312 -0.0820312 Z M -0.0820312 -0.0820312 "/>
<path style=" stroke:none;fill-rule:evenodd;fill:rgb(96.470588%,96.470588%,96.470588%);fill-opacity:1;" d="M 94.582031 -0.0820312 C 113.027344 -0.0820312 131.472656 -0.0820312 149.917969 -0.0820312 C 149.917969 14.359375 149.917969 28.804688 149.917969 43.25 C 148.804688 43.25 147.695312 43.25 146.582031 43.25 C 146.582031 42.140625 146.582031 41.027344 146.582031 39.917969 C 145.472656 39.917969 144.359375 39.917969 143.25 39.917969 C 143.25 38.804688 143.25 37.695312 143.25 36.582031 C 142.140625 36.582031 141.027344 36.582031 139.917969 36.582031 C 139.917969 35.472656 139.917969 34.359375 139.917969 33.25 C 138.804688 33.25 137.695312 33.25 136.582031 33.25 C 136.582031 32.140625 136.582031 31.027344 136.582031 29.917969 C 135.472656 29.917969 134.359375 29.917969 133.25 29.917969 C 133.25 28.804688 133.25 27.695312 133.25 26.582031 C 132.140625 26.582031 131.027344 26.582031 129.917969 26.582031 C 129.917969 25.472656 129.917969 24.359375 129.917969 23.25 C 128.804688 23.25 127.695312 23.25 126.582031 23.25 C 126.582031 22.140625 126.582031 21.027344 126.582031 19.917969 C 125.472656 19.917969 124.359375 19.917969 123.25 19.917969 C 123.25 18.804688 123.25 17.695312 123.25 16.582031 C 122.140625 16.582031 121.027344 16.582031 119.917969 16.582031 C 119.917969 15.472656 119.917969 14.359375 119.917969 13.25 C 118.804688 13.25 117.695312 13.25 116.582031 13.25 C 116.582031 12.140625 116.582031 11.027344 116.582031 9.917969 C 115.527344 9.917969 114.472656 9.917969 113.417969 9.917969 C 113.265625 8.390625 112.738281 7 111.832031 5.75 C 110.378906 3.789062 108.515625 2.371094 106.25 1.5 C 105.582031 1.390625 104.917969 1.390625 104.25 1.5 C 102.789062 2.542969 101.398438 3.683594 100.082031 4.917969 C 98.785156 3.535156 97.453125 2.171875 96.082031 0.832031 C 95.621094 0.4375 95.121094 0.132812 94.582031 -0.0820312 Z M 94.582031 -0.0820312 "/>
<path style=" stroke:none;fill-rule:evenodd;fill:rgb(3.137255%,2.352941%,2.352941%);fill-opacity:1;" d="M 55.082031 -0.0820312 C 55.359375 -0.0820312 55.640625 -0.0820312 55.917969 -0.0820312 C 57.574219 1.488281 59.210938 3.101562 60.832031 4.75 C 64.007812 8.421875 67.117188 12.144531 70.167969 15.917969 C 71.636719 17.6875 73.21875 19.351562 74.917969 20.917969 C 76.195312 19.773438 77.390625 18.554688 78.5 17.25 C 82 13.082031 85.5 8.917969 89 4.75 C 90.621094 3.101562 92.261719 1.488281 93.917969 -0.0820312 C 94.140625 -0.0820312 94.359375 -0.0820312 94.582031 -0.0820312 C 95.121094 0.132812 95.621094 0.4375 96.082031 0.832031 C 97.453125 2.171875 98.785156 3.535156 100.082031 4.917969 C 101.398438 3.683594 102.789062 2.542969 104.25 1.5 C 104.917969 1.390625 105.582031 1.390625 106.25 1.5 C 108.515625 2.371094 110.378906 3.789062 111.832031 5.75 C 112.738281 7 113.265625 8.390625 113.417969 9.917969 C 113.304688 10.445312 113.109375 10.945312 112.832031 11.417969 C 111.832031 12.417969 110.832031 13.417969 109.832031 14.417969 C 109.722656 14.582031 109.722656 14.75 109.832031 14.917969 C 113.589844 19.171875 117.617188 23.144531 121.917969 26.832031 C 123.472656 27.609375 125.027344 28.390625 126.582031 29.167969 C 129.070312 29.625 131.570312 29.984375 134.082031 30.25 C 135.042969 37.09375 134.097656 43.648438 131.25 49.917969 C 130.070312 52.523438 128.460938 54.828125 126.417969 56.832031 C 123.246094 59.417969 119.96875 61.832031 116.582031 64.082031 C 113.238281 64.996094 109.847656 65.71875 106.417969 66.25 C 106.421875 64.324219 106.171875 62.4375 105.667969 60.582031 C 104.15625 56.101562 102.542969 51.65625 100.832031 47.25 C 98.425781 44.84375 96.007812 42.425781 93.582031 40 C 93.121094 39.957031 92.757812 40.148438 92.5 40.582031 C 90.117188 43.429688 87.757812 46.289062 85.417969 49.167969 C 93.554688 59.496094 101.773438 69.746094 110.082031 79.917969 C 114.796875 85.9375 119.546875 91.9375 124.332031 97.917969 C 126.0625 99.699219 127.726562 101.535156 129.332031 103.417969 C 129.6875 104.382812 129.632812 105.324219 129.167969 106.25 C 128.484375 107.265625 127.679688 108.183594 126.75 109 C 123.535156 111.492188 120.367188 114.046875 117.25 116.667969 C 115.503906 117.925781 113.671875 119.011719 111.75 119.917969 C 111.359375 119.917969 110.972656 119.917969 110.582031 119.917969 C 108.59375 118.109375 107.234375 115.886719 106.5 113.25 C 106.390625 112.25 106.390625 111.25 106.5 110.25 C 106.914062 107.816406 107.191406 105.371094 107.332031 102.917969 C 105.828125 100.71875 104.300781 98.554688 102.75 96.417969 C 99.914062 91.746094 96.691406 87.355469 93.082031 83.25 C 88.664062 77.441406 83.996094 71.828125 79.082031 66.417969 C 77.773438 64.796875 76.382812 63.242188 74.917969 61.75 C 71.515625 65.429688 68.238281 69.207031 65.082031 73.082031 C 62.128906 76.425781 59.296875 79.871094 56.582031 83.417969 C 54.835938 85.570312 53.085938 87.738281 51.332031 89.917969 C 48.453125 94.296875 45.507812 98.628906 42.5 102.917969 C 42.832031 106.25 43.167969 109.582031 43.5 112.917969 C 42.714844 115.660156 41.296875 117.992188 39.25 119.917969 C 38.804688 119.917969 38.359375 119.917969 37.917969 119.917969 C 36.039062 119.015625 34.261719 117.929688 32.582031 116.667969 C 29.464844 114.046875 26.296875 111.492188 23.082031 109 C 22.152344 108.183594 21.347656 107.265625 20.667969 106.25 C 20.28125 105.457031 20.171875 104.621094 20.332031 103.75 C 21.933594 101.707031 23.652344 99.761719 25.5 97.917969 C 38.453125 81.652344 51.425781 65.402344 64.417969 49.167969 C 61.996094 46.351562 59.636719 43.492188 57.332031 40.582031 C 57.074219 40.148438 56.714844 39.957031 56.25 40 C 53.941406 42.367188 51.578125 44.671875 49.167969 46.917969 C 47.136719 51.898438 45.300781 56.953125 43.667969 62.082031 C 43.503906 63.46875 43.421875 64.855469 43.417969 66.25 C 40.609375 65.882812 37.832031 65.355469 35.082031 64.667969 C 33.886719 64.347656 32.777344 63.847656 31.75 63.167969 C 28.972656 61.054688 26.195312 58.945312 23.417969 56.832031 C 22.660156 56.132812 21.964844 55.382812 21.332031 54.582031 C 16.28125 47.230469 14.476562 39.148438 15.917969 30.332031 C 18.417969 29.917969 20.917969 29.5 23.417969 29.082031 C 24.914062 28.335938 26.414062 27.585938 27.917969 26.832031 C 32.210938 23.148438 36.238281 19.175781 40 14.917969 C 40.109375 14.75 40.109375 14.582031 40 14.417969 C 38.765625 13.292969 37.65625 12.070312 36.667969 10.75 C 36.582031 10.140625 36.554688 9.53125 36.582031 8.917969 C 37.648438 5.601562 39.757812 3.183594 42.917969 1.667969 C 43.917969 1.332031 44.917969 1.332031 45.917969 1.667969 C 47.21875 2.71875 48.496094 3.800781 49.75 4.917969 C 51.375 3.066406 53.152344 1.402344 55.082031 -0.0820312 Z M 55.082031 -0.0820312 "/>
<path style=" stroke:none;fill-rule:evenodd;fill:rgb(92.941176%,92.941176%,92.941176%);fill-opacity:1;" d="M 55.917969 -0.0820312 C 57.25 -0.0820312 58.582031 -0.0820312 59.917969 -0.0820312 C 59.917969 1.027344 59.917969 2.140625 59.917969 3.25 C 61.027344 3.25 62.140625 3.25 63.25 3.25 C 63.25 4.359375 63.25 5.472656 63.25 6.582031 C 64.359375 6.582031 65.472656 6.582031 66.582031 6.582031 C 66.582031 7.695312 66.582031 8.804688 66.582031 9.917969 C 67.695312 9.917969 68.804688 9.917969 69.917969 9.917969 C 69.917969 11.027344 69.917969 12.140625 69.917969 13.25 C 71.027344 13.25 72.140625 13.25 73.25 13.25 C 73.25 14.359375 73.25 15.472656 73.25 16.582031 C 74.359375 16.582031 75.472656 16.582031 76.582031 16.582031 C 76.582031 15.472656 76.582031 14.359375 76.582031 13.25 C 77.695312 13.25 78.804688 13.25 79.917969 13.25 C 79.917969 12.140625 79.917969 11.027344 79.917969 9.917969 C 81.027344 9.917969 82.140625 9.917969 83.25 9.917969 C 83.25 8.804688 83.25 7.695312 83.25 6.582031 C 84.359375 6.582031 85.472656 6.582031 86.582031 6.582031 C 86.582031 5.472656 86.582031 4.359375 86.582031 3.25 C 87.640625 3.277344 88.695312 3.25 89.75 3.167969 C 89.914062 2.097656 89.96875 1.015625 89.917969 -0.0820312 C 91.25 -0.0820312 92.582031 -0.0820312 93.917969 -0.0820312 C 92.261719 1.488281 90.621094 3.101562 89 4.75 C 85.5 8.917969 82 13.082031 78.5 17.25 C 77.390625 18.554688 76.195312 19.773438 74.917969 20.917969 C 73.21875 19.351562 71.636719 17.6875 70.167969 15.917969 C 67.117188 12.144531 64.007812 8.421875 60.832031 4.75 C 59.210938 3.101562 57.574219 1.488281 55.917969 -0.0820312 Z M 55.917969 -0.0820312 "/>
<path style=" stroke:none;fill-rule:evenodd;fill:rgb(51.372549%,34.901961%,12.156863%);fill-opacity:1;" d="M 104.75 2.75 C 106.21875 2.816406 107.496094 3.347656 108.582031 4.332031 C 110.066406 5.589844 111.148438 7.117188 111.832031 8.917969 C 111.945312 9.359375 111.945312 9.804688 111.832031 10.25 C 110.835938 11.414062 109.777344 12.527344 108.667969 13.582031 C 106.222656 11.140625 103.777344 8.695312 101.332031 6.25 C 101.207031 6.0625 101.234375 5.894531 101.417969 5.75 C 102.484375 4.679688 103.597656 3.679688 104.75 2.75 Z M 104.75 2.75 "/>
<path style=" stroke:none;fill-rule:evenodd;fill:rgb(51.372549%,34.901961%,12.156863%);fill-opacity:1;" d="M 43.917969 2.75 C 44.433594 2.726562 44.933594 2.808594 45.417969 3 C 46.527344 3.941406 47.582031 4.941406 48.582031 6 C 46.171875 8.578125 43.703125 11.105469 41.167969 13.582031 C 40.167969 12.582031 39.167969 11.582031 38.167969 10.582031 C 37.917969 10.050781 37.863281 9.492188 38 8.917969 C 39.160156 6.0625 41.132812 4.007812 43.917969 2.75 Z M 43.917969 2.75 "/>
<path style=" stroke:none;fill-rule:evenodd;fill:rgb(90.588235%,0%,0%);fill-opacity:1;" d="M 94.25 1.417969 C 98.953125 5.871094 103.59375 10.425781 108.167969 15.082031 C 112.140625 19.722656 116.445312 24.027344 121.082031 28 C 122.789062 28.839844 124.484375 29.699219 126.167969 30.582031 C 126.277344 31.75 126.277344 32.917969 126.167969 34.082031 C 125.113281 37.019531 123.835938 39.855469 122.332031 42.582031 C 120.691406 45.058594 118.832031 47.363281 116.75 49.5 C 114.40625 51.394531 111.851562 52.949219 109.082031 54.167969 C 107.835938 54.648438 106.554688 55.007812 105.25 55.25 C 104.160156 52.179688 103.023438 49.125 101.832031 46.082031 C 98.296875 42.710938 94.824219 39.296875 91.417969 35.832031 C 88.773438 33.484375 86.164062 31.09375 83.582031 28.667969 C 80.847656 26.683594 78.40625 24.378906 76.25 21.75 C 80.933594 16.59375 85.460938 11.316406 89.832031 5.917969 C 91.339844 4.4375 92.8125 2.9375 94.25 1.417969 Z M 94.25 1.417969 "/>
<path style=" stroke:none;fill-rule:evenodd;fill:rgb(76.862745%,0%,0%);fill-opacity:1;" d="M 94.582031 5.25 C 103.941406 14.128906 113.246094 23.015625 122.5 31.917969 C 122.867188 32.652344 123.230469 33.375 123.582031 34.082031 C 122.90625 35.9375 122.238281 37.796875 121.582031 39.667969 C 120.203125 41.546875 118.757812 43.382812 117.25 45.167969 C 114.550781 47.238281 111.882812 49.347656 109.25 51.5 C 108.144531 51.214844 107.035156 50.910156 105.917969 50.582031 C 105.695312 49.253906 105.308594 47.976562 104.75 46.75 C 106.25 46.640625 107.75 46.527344 109.25 46.417969 C 110.820312 44.769531 112.433594 43.15625 114.082031 41.582031 C 114.976562 40.246094 115.945312 38.96875 117 37.75 C 117.726562 36.351562 118.3125 34.90625 118.75 33.417969 C 117.539062 31.789062 116.175781 30.289062 114.667969 28.917969 C 114.554688 28.695312 114.445312 28.472656 114.332031 28.25 C 111.332031 25.027344 108.332031 21.804688 105.332031 18.582031 C 105.152344 18.167969 104.929688 17.777344 104.667969 17.417969 C 101.203125 13.425781 97.84375 9.371094 94.582031 5.25 Z M 94.582031 5.25 "/>
<path style=" stroke:none;fill-rule:evenodd;fill:rgb(90.588235%,0%,0%);fill-opacity:1;" d="M 55.25 1.417969 C 56.902344 2.816406 58.484375 4.316406 60 5.917969 C 64.371094 11.316406 68.898438 16.59375 73.582031 21.75 C 71.429688 24.378906 68.984375 26.683594 66.25 28.667969 C 63.671875 31.09375 61.058594 33.484375 58.417969 35.832031 C 55.011719 39.296875 51.539062 42.710938 48 46.082031 C 46.835938 49.183594 45.644531 52.265625 44.417969 55.332031 C 39.347656 54.035156 34.984375 51.507812 31.332031 47.75 C 29.414062 45.332031 27.691406 42.773438 26.167969 40.082031 C 25.242188 38.121094 24.40625 36.121094 23.667969 34.082031 C 23.582031 32.863281 23.554688 31.640625 23.582031 30.417969 C 25.230469 29.761719 26.839844 29.011719 28.417969 28.167969 C 30.109375 26.683594 31.832031 25.238281 33.582031 23.832031 C 40.605469 16.171875 47.828125 8.699219 55.25 1.417969 Z M 55.25 1.417969 "/>
<path style=" stroke:none;fill-rule:evenodd;fill:rgb(76.862745%,0%,0%);fill-opacity:1;" d="M 55.082031 5.25 C 55.441406 5.230469 55.496094 5.34375 55.25 5.582031 C 50.902344 10.625 46.652344 15.734375 42.5 20.917969 C 38.554688 25 34.695312 29.167969 30.917969 33.417969 C 31.570312 34.855469 32.210938 36.296875 32.832031 37.75 C 35.171875 40.925781 37.8125 43.839844 40.75 46.5 C 42.199219 46.527344 43.640625 46.613281 45.082031 46.75 C 44.546875 47.988281 44.15625 49.265625 43.917969 50.582031 C 42.878906 50.878906 41.851562 51.210938 40.832031 51.582031 C 38.238281 49.605469 35.65625 47.605469 33.082031 45.582031 C 31.382812 43.6875 29.773438 41.714844 28.25 39.667969 C 27.746094 38.238281 27.214844 36.824219 26.667969 35.417969 C 26.46875 34.757812 26.414062 34.09375 26.5 33.417969 C 26.742188 33 26.9375 32.554688 27.082031 32.082031 C 36.503906 23.277344 45.835938 14.332031 55.082031 5.25 Z M 55.082031 5.25 "/>
<path style=" stroke:none;fill-rule:evenodd;fill:rgb(96.862745%,96.862745%,96.862745%);fill-opacity:1;" d="M 59.917969 -0.0820312 C 69.917969 -0.0820312 79.917969 -0.0820312 89.917969 -0.0820312 C 89.96875 1.015625 89.914062 2.097656 89.75 3.167969 C 88.695312 3.25 87.640625 3.277344 86.582031 3.25 C 86.582031 4.359375 86.582031 5.472656 86.582031 6.582031 C 85.472656 6.582031 84.359375 6.582031 83.25 6.582031 C 83.25 7.695312 83.25 8.804688 83.25 9.917969 C 82.140625 9.917969 81.027344 9.917969 79.917969 9.917969 C 79.917969 11.027344 79.917969 12.140625 79.917969 13.25 C 78.804688 13.25 77.695312 13.25 76.582031 13.25 C 76.582031 14.359375 76.582031 15.472656 76.582031 16.582031 C 75.472656 16.582031 74.359375 16.582031 73.25 16.582031 C 73.25 15.472656 73.25 14.359375 73.25 13.25 C 72.140625 13.25 71.027344 13.25 69.917969 13.25 C 69.917969 12.140625 69.917969 11.027344 69.917969 9.917969 C 68.804688 9.917969 67.695312 9.917969 66.582031 9.917969 C 66.582031 8.804688 66.582031 7.695312 66.582031 6.582031 C 65.472656 6.582031 64.359375 6.582031 63.25 6.582031 C 63.25 5.472656 63.25 4.359375 63.25 3.25 C 62.140625 3.25 61.027344 3.25 59.917969 3.25 C 59.917969 2.140625 59.917969 1.027344 59.917969 -0.0820312 Z M 59.917969 -0.0820312 "/>
<path style=" stroke:none;fill-rule:evenodd;fill:rgb(92.941176%,92.941176%,92.941176%);fill-opacity:1;" d="M 36.582031 8.917969 C 36.554688 9.53125 36.582031 10.140625 36.667969 10.75 C 37.65625 12.070312 38.765625 13.292969 40 14.417969 C 40.109375 14.582031 40.109375 14.75 40 14.917969 C 36.238281 19.175781 32.210938 23.148438 27.917969 26.832031 C 26.414062 27.585938 24.914062 28.335938 23.417969 29.082031 C 23.257812 28.265625 23.203125 27.433594 23.25 26.582031 C 24.359375 26.582031 25.472656 26.582031 26.582031 26.582031 C 26.582031 25.472656 26.582031 24.359375 26.582031 23.25 C 27.695312 23.25 28.804688 23.25 29.917969 23.25 C 29.917969 22.140625 29.917969 21.027344 29.917969 19.917969 C 31.027344 19.917969 32.140625 19.917969 33.25 19.917969 C 33.25 18.804688 33.25 17.695312 33.25 16.582031 C 34.359375 16.582031 35.472656 16.582031 36.582031 16.582031 C 36.582031 15.472656 36.582031 14.359375 36.582031 13.25 C 35.472656 13.25 34.359375 13.25 33.25 13.25 C 33.25 12.140625 33.25 11.027344 33.25 9.917969 C 34.304688 9.917969 35.359375 9.917969 36.417969 9.917969 C 36.367188 9.542969 36.421875 9.210938 36.582031 8.917969 Z M 36.582031 8.917969 "/>
<path style=" stroke:none;fill-rule:evenodd;fill:rgb(94.901961%,95.294118%,94.901961%);fill-opacity:1;" d="M 74.75 22.582031 C 74.875 22.5625 74.984375 22.589844 75.082031 22.667969 C 77.007812 24.839844 79.0625 26.867188 81.25 28.75 C 79.257812 31.347656 77.144531 33.847656 74.917969 36.25 C 72.6875 33.847656 70.578125 31.347656 68.582031 28.75 C 69.441406 27.917969 70.332031 27.113281 71.25 26.332031 C 72.511719 25.15625 73.679688 23.90625 74.75 22.582031 Z M 74.75 22.582031 "/>
<path style=" stroke:none;fill-rule:evenodd;fill:rgb(73.333333%,73.72549%,74.509804%);fill-opacity:1;" d="M 21.75 30.75 C 21.945312 30.714844 22.113281 30.769531 22.25 30.917969 C 22.0625 31.90625 22.035156 32.90625 22.167969 33.917969 C 23.25 36.945312 24.527344 39.886719 26 42.75 C 27.472656 44.921875 29.03125 47.03125 30.667969 49.082031 C 34.421875 52.726562 38.839844 55.226562 43.917969 56.582031 C 43.46875 58.324219 42.9375 60.046875 42.332031 61.75 C 42.246094 62.695312 42.160156 63.640625 42.082031 64.582031 C 39.113281 64.21875 36.222656 63.523438 33.417969 62.5 C 30.605469 60.621094 27.882812 58.621094 25.25 56.5 C 23.234375 54.871094 21.652344 52.902344 20.5 50.582031 C 17.351562 44.621094 16.210938 38.285156 17.082031 31.582031 C 18.660156 31.300781 20.214844 31.023438 21.75 30.75 Z M 21.75 30.75 "/>
<path style=" stroke:none;fill-rule:evenodd;fill:rgb(73.333333%,73.72549%,74.509804%);fill-opacity:1;" d="M 127.582031 30.75 C 129.191406 31 130.800781 31.25 132.417969 31.5 C 133.824219 39.90625 131.960938 47.542969 126.832031 54.417969 C 123.855469 57.027344 120.773438 59.5 117.582031 61.832031 C 116.851562 62.308594 116.074219 62.699219 115.25 63 C 112.777344 63.671875 110.277344 64.199219 107.75 64.582031 C 107.710938 63.636719 107.625 62.691406 107.5 61.75 C 106.894531 60.050781 106.367188 58.328125 105.917969 56.582031 C 110.996094 55.226562 115.414062 52.726562 119.167969 49.082031 C 121.496094 46.3125 123.496094 43.3125 125.167969 40.082031 C 126.066406 38.054688 126.898438 36 127.667969 33.917969 C 127.792969 32.851562 127.765625 31.796875 127.582031 30.75 Z M 127.582031 30.75 "/>
<path style=" stroke:none;fill-rule:evenodd;fill:rgb(74.117647%,66.27451%,52.54902%);fill-opacity:1;" d="M 72.082031 39.582031 C 70.367188 37.671875 68.617188 35.785156 66.832031 33.917969 C 66.753906 33.757812 66.726562 33.59375 66.75 33.417969 C 67.460938 32.789062 68.15625 32.121094 68.832031 31.417969 C 70.566406 33.386719 72.261719 35.386719 73.917969 37.417969 C 73.359375 38.195312 72.75 38.917969 72.082031 39.582031 Z M 72.082031 39.582031 "/>
<path style=" stroke:none;fill-rule:evenodd;fill:rgb(95.686275%,95.686275%,95.686275%);fill-opacity:1;" d="M 113.417969 9.917969 C 114.472656 9.917969 115.527344 9.917969 116.582031 9.917969 C 116.582031 11.027344 116.582031 12.140625 116.582031 13.25 C 117.695312 13.25 118.804688 13.25 119.917969 13.25 C 119.917969 14.359375 119.917969 15.472656 119.917969 16.582031 C 121.027344 16.582031 122.140625 16.582031 123.25 16.582031 C 123.25 17.695312 123.25 18.804688 123.25 19.917969 C 124.359375 19.917969 125.472656 19.917969 126.582031 19.917969 C 126.582031 21.027344 126.582031 22.140625 126.582031 23.25 C 127.695312 23.25 128.804688 23.25 129.917969 23.25 C 129.917969 24.359375 129.917969 25.472656 129.917969 26.582031 C 131.027344 26.582031 132.140625 26.582031 133.25 26.582031 C 133.25 27.695312 133.25 28.804688 133.25 29.917969 C 134.359375 29.917969 135.472656 29.917969 136.582031 29.917969 C 136.582031 31.027344 136.582031 32.140625 136.582031 33.25 C 137.695312 33.25 138.804688 33.25 139.917969 33.25 C 139.917969 34.359375 139.917969 35.472656 139.917969 36.582031 C 141.027344 36.582031 142.140625 36.582031 143.25 36.582031 C 143.25 37.695312 143.25 38.804688 143.25 39.917969 C 144.359375 39.917969 145.472656 39.917969 146.582031 39.917969 C 146.582031 41.027344 146.582031 42.140625 146.582031 43.25 C 147.695312 43.25 148.804688 43.25 149.917969 43.25 C 149.917969 51.027344 149.917969 58.804688 149.917969 66.582031 C 148.804688 66.582031 147.695312 66.582031 146.582031 66.582031 C 146.582031 65.472656 146.582031 64.359375 146.582031 63.25 C 145.472656 63.25 144.359375 63.25 143.25 63.25 C 143.25 62.140625 143.25 61.027344 143.25 59.917969 C 142.140625 59.917969 141.027344 59.917969 139.917969 59.917969 C 139.917969 58.804688 139.917969 57.695312 139.917969 56.582031 C 138.804688 56.582031 137.695312 56.582031 136.582031 56.582031 C 136.582031 55.472656 136.582031 54.359375 136.582031 53.25 C 135.472656 53.25 134.359375 53.25 133.25 53.25 C 133.25 52.140625 133.25 51.027344 133.25 49.917969 C 132.582031 49.917969 131.917969 49.917969 131.25 49.917969 C 134.097656 43.648438 135.042969 37.09375 134.082031 30.25 C 131.570312 29.984375 129.070312 29.625 126.582031 29.167969 C 125.027344 28.390625 123.472656 27.609375 121.917969 26.832031 C 117.617188 23.144531 113.589844 19.171875 109.832031 14.917969 C 109.722656 14.75 109.722656 14.582031 109.832031 14.417969 C 110.832031 13.417969 111.832031 12.417969 112.832031 11.417969 C 113.109375 10.945312 113.304688 10.445312 113.417969 9.917969 Z M 113.417969 9.917969 "/>
<path style=" stroke:none;fill-rule:evenodd;fill:rgb(50.980392%,34.509804%,12.156863%);fill-opacity:1;" d="M 83.082031 33.417969 C 85.4375 35.578125 87.773438 37.773438 90.082031 40 C 90.347656 40.144531 90.625 40.253906 90.917969 40.332031 C 81.242188 52.0625 71.382812 63.648438 61.332031 75.082031 C 57.5 79.917969 53.667969 84.75 49.832031 89.582031 C 46.953125 93.960938 44.007812 98.296875 41 102.582031 C 41.304688 105.691406 41.667969 108.804688 42.082031 111.917969 C 41.710938 114.394531 40.65625 116.535156 38.917969 118.332031 C 38.199219 118.410156 37.53125 118.242188 36.917969 117.832031 C 33.863281 115.917969 31.027344 113.722656 28.417969 111.25 C 29.109375 110.25 29.582031 109.140625 29.832031 107.917969 C 29.992188 105.453125 30.492188 103.066406 31.332031 100.75 C 33.832031 97.308594 36.164062 93.753906 38.332031 90.082031 C 42.503906 84.71875 46.363281 79.132812 49.917969 73.332031 C 51.070312 72.4375 52.210938 71.519531 53.332031 70.582031 C 58.222656 63.917969 63.109375 57.25 68 50.582031 C 69.738281 48.957031 71.570312 47.457031 73.5 46.082031 C 75.097656 43.722656 76.652344 41.335938 78.167969 38.917969 C 79.671875 37.4375 81.144531 35.9375 82.582031 34.417969 C 82.902344 34.15625 83.070312 33.820312 83.082031 33.417969 Z M 83.082031 33.417969 "/>
<path style=" stroke:none;fill-rule:evenodd;fill:rgb(51.372549%,34.901961%,12.156863%);fill-opacity:1;" d="M 66.75 33.417969 C 66.726562 33.59375 66.753906 33.757812 66.832031 33.917969 C 68.617188 35.785156 70.367188 37.671875 72.082031 39.582031 C 69.929688 42.40625 67.707031 45.183594 65.417969 47.917969 C 63.160156 45.464844 60.996094 42.9375 58.917969 40.332031 C 59.207031 40.253906 59.484375 40.144531 59.75 40 C 62.0625 37.773438 64.394531 35.578125 66.75 33.417969 Z M 66.75 33.417969 "/>
<path style=" stroke:none;fill-rule:evenodd;fill:rgb(90.980392%,90.980392%,91.372549%);fill-opacity:1;" d="M 18.582031 42.75 C 19.789062 45.042969 21.039062 47.320312 22.332031 49.582031 C 23.855469 51.382812 25.4375 53.132812 27.082031 54.832031 C 30.515625 56.878906 33.90625 58.988281 37.25 61.167969 C 38.058594 61.417969 38.863281 61.445312 39.667969 61.25 C 39.800781 60.574219 39.964844 59.910156 40.167969 59.25 C 40.570312 58.609375 41.015625 58 41.5 57.417969 C 41.609375 57.917969 41.609375 58.417969 41.5 58.917969 C 41.144531 59.890625 40.894531 60.890625 40.75 61.917969 C 40.808594 62.539062 40.917969 63.152344 41.082031 63.75 C 41 63.804688 40.917969 63.859375 40.832031 63.917969 C 38.355469 63.066406 35.882812 62.207031 33.417969 61.332031 C 31.683594 59.992188 29.90625 58.714844 28.082031 57.5 C 26.742188 56.214844 25.355469 54.992188 23.917969 53.832031 C 22.839844 52.433594 21.867188 50.960938 21 49.417969 C 20.175781 47.195312 19.371094 44.972656 18.582031 42.75 Z M 18.582031 42.75 "/>
<path style=" stroke:none;fill-rule:evenodd;fill:rgb(50.980392%,34.509804%,12.156863%);fill-opacity:1;" d="M 82.917969 52.25 C 87.476562 58.226562 91.949219 64.285156 96.332031 70.417969 C 97.371094 71.339844 98.453125 72.199219 99.582031 73 C 103.183594 78.710938 107.046875 84.238281 111.167969 89.582031 C 113.414062 93.441406 115.859375 97.164062 118.5 100.75 C 119.339844 103.066406 119.839844 105.453125 120 107.917969 C 120.253906 108.757812 120.53125 109.589844 120.832031 110.417969 C 120.949219 110.765625 121.144531 111.042969 121.417969 111.25 C 118.738281 113.84375 115.796875 116.09375 112.582031 118 C 112.0625 118.320312 111.507812 118.433594 110.917969 118.332031 C 109.257812 116.488281 108.203125 114.347656 107.75 111.917969 C 108.140625 108.800781 108.5 105.691406 108.832031 102.582031 C 105.738281 98.113281 102.679688 93.613281 99.667969 89.082031 C 95.882812 84.464844 92.160156 79.796875 88.5 75.082031 C 84.335938 70.226562 80.140625 65.390625 75.917969 60.582031 C 78.195312 57.75 80.53125 54.972656 82.917969 52.25 Z M 82.917969 52.25 "/>
<path style=" stroke:none;fill-rule:evenodd;fill:rgb(90.980392%,90.980392%,90.980392%);fill-opacity:1;" d="M 131.082031 42.75 C 131.261719 42.875 131.289062 43.042969 131.167969 43.25 C 130.34375 45.289062 129.566406 47.34375 128.832031 49.417969 C 128.046875 51.015625 127.074219 52.488281 125.917969 53.832031 C 124.535156 54.9375 123.199219 56.105469 121.917969 57.332031 C 119.980469 58.65625 118.09375 60.046875 116.25 61.5 C 113.804688 62.242188 111.390625 63.046875 109 63.917969 C 109.257812 62.242188 109.035156 60.632812 108.332031 59.082031 C 108.222656 58.527344 108.222656 57.972656 108.332031 57.417969 C 108.777344 57.972656 109.222656 58.527344 109.667969 59.082031 C 109.832031 59.804688 110 60.527344 110.167969 61.25 C 111.3125 61.460938 112.394531 61.265625 113.417969 60.667969 C 116.222656 58.847656 119.054688 57.070312 121.917969 55.332031 C 122.707031 54.875 123.402344 54.292969 124 53.582031 C 125.277344 52.082031 126.554688 50.582031 127.832031 49.082031 C 129.046875 47.042969 130.132812 44.929688 131.082031 42.75 Z M 131.082031 42.75 "/>
<path style=" stroke:none;fill-rule:evenodd;fill:rgb(96.862745%,96.862745%,96.862745%);fill-opacity:1;" d="M 131.25 49.917969 C 131.917969 49.917969 132.582031 49.917969 133.25 49.917969 C 133.25 51.027344 133.25 52.140625 133.25 53.25 C 134.359375 53.25 135.472656 53.25 136.582031 53.25 C 136.582031 54.359375 136.582031 55.472656 136.582031 56.582031 C 137.695312 56.582031 138.804688 56.582031 139.917969 56.582031 C 139.917969 57.695312 139.917969 58.804688 139.917969 59.917969 C 141.027344 59.917969 142.140625 59.917969 143.25 59.917969 C 143.25 61.027344 143.25 62.140625 143.25 63.25 C 144.359375 63.25 145.472656 63.25 146.582031 63.25 C 146.582031 64.359375 146.582031 65.472656 146.582031 66.582031 C 147.695312 66.582031 148.804688 66.582031 149.917969 66.582031 C 149.917969 76.582031 149.917969 86.582031 149.917969 96.582031 C 148.804688 96.582031 147.695312 96.582031 146.582031 96.582031 C 146.582031 95.472656 146.582031 94.359375 146.582031 93.25 C 145.472656 93.25 144.359375 93.25 143.25 93.25 C 143.25 92.140625 143.25 91.027344 143.25 89.917969 C 142.140625 89.917969 141.027344 89.917969 139.917969 89.917969 C 139.917969 88.804688 139.917969 87.695312 139.917969 86.582031 C 138.804688 86.582031 137.695312 86.582031 136.582031 86.582031 C 136.582031 85.472656 136.582031 84.359375 136.582031 83.25 C 135.472656 83.25 134.359375 83.25 133.25 83.25 C 133.25 82.140625 133.25 81.027344 133.25 79.917969 C 132.140625 79.917969 131.027344 79.917969 129.917969 79.917969 C 129.917969 78.804688 129.917969 77.695312 129.917969 76.582031 C 128.804688 76.582031 127.695312 76.582031 126.582031 76.582031 C 126.582031 75.472656 126.582031 74.359375 126.582031 73.25 C 125.472656 73.25 124.359375 73.25 123.25 73.25 C 123.25 72.140625 123.25 71.027344 123.25 69.917969 C 122.140625 69.917969 121.027344 69.917969 119.917969 69.917969 C 119.917969 68.804688 119.917969 67.695312 119.917969 66.582031 C 118.804688 66.582031 117.695312 66.582031 116.582031 66.582031 C 116.582031 65.75 116.582031 64.917969 116.582031 64.082031 C 119.96875 61.832031 123.246094 59.417969 126.417969 56.832031 C 128.460938 54.828125 130.070312 52.523438 131.25 49.917969 Z M 131.25 49.917969 "/>
<path style=" stroke:none;fill-rule:evenodd;fill:rgb(95.294118%,95.294118%,95.294118%);fill-opacity:1;" d="M 116.582031 64.082031 C 116.582031 64.917969 116.582031 65.75 116.582031 66.582031 C 117.695312 66.582031 118.804688 66.582031 119.917969 66.582031 C 119.917969 67.695312 119.917969 68.804688 119.917969 69.917969 C 121.027344 69.917969 122.140625 69.917969 123.25 69.917969 C 123.25 71.027344 123.25 72.140625 123.25 73.25 C 124.359375 73.25 125.472656 73.25 126.582031 73.25 C 126.582031 74.359375 126.582031 75.472656 126.582031 76.582031 C 127.695312 76.582031 128.804688 76.582031 129.917969 76.582031 C 129.917969 77.695312 129.917969 78.804688 129.917969 79.917969 C 131.027344 79.917969 132.140625 79.917969 133.25 79.917969 C 133.25 81.027344 133.25 82.140625 133.25 83.25 C 134.359375 83.25 135.472656 83.25 136.582031 83.25 C 136.582031 84.359375 136.582031 85.472656 136.582031 86.582031 C 137.695312 86.582031 138.804688 86.582031 139.917969 86.582031 C 139.917969 87.695312 139.917969 88.804688 139.917969 89.917969 C 141.027344 89.917969 142.140625 89.917969 143.25 89.917969 C 143.25 91.027344 143.25 92.140625 143.25 93.25 C 144.359375 93.25 145.472656 93.25 146.582031 93.25 C 146.582031 94.359375 146.582031 95.472656 146.582031 96.582031 C 147.695312 96.582031 148.804688 96.582031 149.917969 96.582031 C 149.917969 99.917969 149.917969 103.25 149.917969 106.582031 C 148.804688 106.582031 147.695312 106.582031 146.582031 106.582031 C 146.582031 105.472656 146.582031 104.359375 146.582031 103.25 C 145.472656 103.25 144.359375 103.25 143.25 103.25 C 143.25 102.140625 143.25 101.027344 143.25 99.917969 C 142.140625 99.917969 141.027344 99.917969 139.917969 99.917969 C 139.917969 98.804688 139.917969 97.695312 139.917969 96.582031 C 138.804688 96.582031 137.695312 96.582031 136.582031 96.582031 C 136.582031 95.472656 136.582031 94.359375 136.582031 93.25 C 135.472656 93.25 134.359375 93.25 133.25 93.25 C 133.25 92.140625 133.25 91.027344 133.25 89.917969 C 132.140625 89.917969 131.027344 89.917969 129.917969 89.917969 C 129.917969 88.804688 129.917969 87.695312 129.917969 86.582031 C 128.804688 86.582031 127.695312 86.582031 126.582031 86.582031 C 126.582031 85.472656 126.582031 84.359375 126.582031 83.25 C 125.472656 83.25 124.359375 83.25 123.25 83.25 C 123.25 82.140625 123.25 81.027344 123.25 79.917969 C 122.140625 79.917969 121.027344 79.917969 119.917969 79.917969 C 119.917969 78.804688 119.917969 77.695312 119.917969 76.582031 C 118.804688 76.582031 117.695312 76.582031 116.582031 76.582031 C 116.582031 75.472656 116.582031 74.359375 116.582031 73.25 C 115.472656 73.25 114.359375 73.25 113.25 73.25 C 113.25 72.140625 113.25 71.027344 113.25 69.917969 C 112.140625 69.917969 111.027344 69.917969 109.917969 69.917969 C 109.917969 68.804688 109.917969 67.695312 109.917969 66.582031 C 108.914062 66.609375 107.914062 66.582031 106.917969 66.5 C 106.710938 66.460938 106.542969 66.378906 106.417969 66.25 C 109.847656 65.71875 113.238281 64.996094 116.582031 64.082031 Z M 116.582031 64.082031 "/>
<path style=" stroke:none;fill-rule:evenodd;fill:rgb(96.862745%,96.862745%,96.862745%);fill-opacity:1;" d="M 79.082031 66.417969 C 78.28125 66.582031 77.449219 66.636719 76.582031 66.582031 C 76.582031 67.695312 76.582031 68.804688 76.582031 69.917969 C 77.695312 69.917969 78.804688 69.917969 79.917969 69.917969 C 79.917969 71.027344 79.917969 72.140625 79.917969 73.25 C 81.027344 73.25 82.140625 73.25 83.25 73.25 C 83.25 74.359375 83.25 75.472656 83.25 76.582031 C 84.359375 76.582031 85.472656 76.582031 86.582031 76.582031 C 86.582031 77.695312 86.582031 78.804688 86.582031 79.917969 C 87.695312 79.917969 88.804688 79.917969 89.917969 79.917969 C 89.917969 81.027344 89.917969 82.140625 89.917969 83.25 C 90.972656 83.25 92.027344 83.25 93.082031 83.25 C 96.691406 87.355469 99.914062 91.746094 102.75 96.417969 C 101.835938 96.582031 100.894531 96.636719 99.917969 96.582031 C 99.917969 97.695312 99.917969 98.804688 99.917969 99.917969 C 101.027344 99.917969 102.140625 99.917969 103.25 99.917969 C 103.25 101.027344 103.25 102.140625 103.25 103.25 C 104.359375 103.25 105.472656 103.25 106.582031 103.25 C 106.582031 104.359375 106.582031 105.472656 106.582031 106.582031 C 105.472656 106.582031 104.359375 106.582031 103.25 106.582031 C 103.25 107.695312 103.25 108.804688 103.25 109.917969 C 102.140625 109.917969 101.027344 109.917969 99.917969 109.917969 C 99.917969 108.804688 99.917969 107.695312 99.917969 106.582031 C 98.804688 106.582031 97.695312 106.582031 96.582031 106.582031 C 96.582031 105.472656 96.582031 104.359375 96.582031 103.25 C 95.472656 103.25 94.359375 103.25 93.25 103.25 C 93.25 102.140625 93.25 101.027344 93.25 99.917969 C 92.140625 99.917969 91.027344 99.917969 89.917969 99.917969 C 89.917969 98.804688 89.917969 97.695312 89.917969 96.582031 C 88.804688 96.582031 87.695312 96.582031 86.582031 96.582031 C 86.582031 95.472656 86.582031 94.359375 86.582031 93.25 C 85.472656 93.25 84.359375 93.25 83.25 93.25 C 83.25 92.140625 83.25 91.027344 83.25 89.917969 C 82.140625 89.917969 81.027344 89.917969 79.917969 89.917969 C 79.917969 88.804688 79.917969 87.695312 79.917969 86.582031 C 78.804688 86.582031 77.695312 86.582031 76.582031 86.582031 C 76.582031 85.472656 76.582031 84.359375 76.582031 83.25 C 75.472656 83.25 74.359375 83.25 73.25 83.25 C 73.25 82.140625 73.25 81.027344 73.25 79.917969 C 72.140625 79.917969 71.027344 79.917969 69.917969 79.917969 C 69.917969 78.804688 69.917969 77.695312 69.917969 76.582031 C 68.804688 76.582031 67.695312 76.582031 66.582031 76.582031 C 66.582031 75.472656 66.582031 74.359375 66.582031 73.25 C 66.046875 73.300781 65.546875 73.246094 65.082031 73.082031 C 68.238281 69.207031 71.515625 65.429688 74.917969 61.75 C 76.382812 63.242188 77.773438 64.796875 79.082031 66.417969 Z M 79.082031 66.417969 "/>
<path style=" stroke:none;fill-rule:evenodd;fill:rgb(97.254902%,97.254902%,97.254902%);fill-opacity:1;" d="M 106.417969 66.25 C 106.542969 66.378906 106.710938 66.460938 106.917969 66.5 C 107.914062 66.582031 108.914062 66.609375 109.917969 66.582031 C 109.917969 67.695312 109.917969 68.804688 109.917969 69.917969 C 111.027344 69.917969 112.140625 69.917969 113.25 69.917969 C 113.25 71.027344 113.25 72.140625 113.25 73.25 C 114.359375 73.25 115.472656 73.25 116.582031 73.25 C 116.582031 74.359375 116.582031 75.472656 116.582031 76.582031 C 117.695312 76.582031 118.804688 76.582031 119.917969 76.582031 C 119.917969 77.695312 119.917969 78.804688 119.917969 79.917969 C 121.027344 79.917969 122.140625 79.917969 123.25 79.917969 C 123.25 81.027344 123.25 82.140625 123.25 83.25 C 124.359375 83.25 125.472656 83.25 126.582031 83.25 C 126.582031 84.359375 126.582031 85.472656 126.582031 86.582031 C 127.695312 86.582031 128.804688 86.582031 129.917969 86.582031 C 129.917969 87.695312 129.917969 88.804688 129.917969 89.917969 C 131.027344 89.917969 132.140625 89.917969 133.25 89.917969 C 133.25 91.027344 133.25 92.140625 133.25 93.25 C 134.359375 93.25 135.472656 93.25 136.582031 93.25 C 136.582031 94.359375 136.582031 95.472656 136.582031 96.582031 C 137.695312 96.582031 138.804688 96.582031 139.917969 96.582031 C 139.917969 97.695312 139.917969 98.804688 139.917969 99.917969 C 141.027344 99.917969 142.140625 99.917969 143.25 99.917969 C 143.25 101.027344 143.25 102.140625 143.25 103.25 C 144.359375 103.25 145.472656 103.25 146.582031 103.25 C 146.582031 104.359375 146.582031 105.472656 146.582031 106.582031 C 147.695312 106.582031 148.804688 106.582031 149.917969 106.582031 C 149.917969 109.917969 149.917969 113.25 149.917969 116.582031 C 148.804688 116.582031 147.695312 116.582031 146.582031 116.582031 C 146.582031 115.472656 146.582031 114.359375 146.582031 113.25 C 145.472656 113.25 144.359375 113.25 143.25 113.25 C 143.25 112.140625 143.25 111.027344 143.25 109.917969 C 142.140625 109.917969 141.027344 109.917969 139.917969 109.917969 C 139.917969 108.804688 139.917969 107.695312 139.917969 106.582031 C 138.804688 106.582031 137.695312 106.582031 136.582031 106.582031 C 136.582031 105.472656 136.582031 104.359375 136.582031 103.25 C 135.472656 103.25 134.359375 103.25 133.25 103.25 C 133.25 102.140625 133.25 101.027344 133.25 99.917969 C 132.140625 99.917969 131.027344 99.917969 129.917969 99.917969 C 129.917969 98.804688 129.917969 97.695312 129.917969 96.582031 C 128.804688 96.582031 127.695312 96.582031 126.582031 96.582031 C 126.582031 95.472656 126.582031 94.359375 126.582031 93.25 C 125.472656 93.25 124.359375 93.25 123.25 93.25 C 123.25 92.140625 123.25 91.027344 123.25 89.917969 C 122.140625 89.917969 121.027344 89.917969 119.917969 89.917969 C 119.917969 88.804688 119.917969 87.695312 119.917969 86.582031 C 118.804688 86.582031 117.695312 86.582031 116.582031 86.582031 C 116.582031 85.472656 116.582031 84.359375 116.582031 83.25 C 115.472656 83.25 114.359375 83.25 113.25 83.25 C 113.25 82.140625 113.25 81.027344 113.25 79.917969 C 112.195312 79.917969 111.140625 79.917969 110.082031 79.917969 C 101.773438 69.746094 93.554688 59.496094 85.417969 49.167969 C 87.757812 46.289062 90.117188 43.429688 92.5 40.582031 C 92.757812 40.148438 93.121094 39.957031 93.582031 40 C 96.007812 42.425781 98.425781 44.84375 100.832031 47.25 C 102.542969 51.65625 104.15625 56.101562 105.667969 60.582031 C 106.171875 62.4375 106.421875 64.324219 106.417969 66.25 Z M 106.417969 66.25 "/>
<path style=" stroke:none;fill-rule:evenodd;fill:rgb(92.941176%,92.941176%,92.941176%);fill-opacity:1;" d="M 79.082031 66.417969 C 83.996094 71.828125 88.664062 77.441406 93.082031 83.25 C 92.027344 83.25 90.972656 83.25 89.917969 83.25 C 89.917969 82.140625 89.917969 81.027344 89.917969 79.917969 C 88.804688 79.917969 87.695312 79.917969 86.582031 79.917969 C 86.582031 78.804688 86.582031 77.695312 86.582031 76.582031 C 85.472656 76.582031 84.359375 76.582031 83.25 76.582031 C 83.25 75.472656 83.25 74.359375 83.25 73.25 C 82.140625 73.25 81.027344 73.25 79.917969 73.25 C 79.917969 72.140625 79.917969 71.027344 79.917969 69.917969 C 78.804688 69.917969 77.695312 69.917969 76.582031 69.917969 C 76.582031 68.804688 76.582031 67.695312 76.582031 66.582031 C 77.449219 66.636719 78.28125 66.582031 79.082031 66.417969 Z M 79.082031 66.417969 "/>
<path style=" stroke:none;fill-rule:evenodd;fill:rgb(74.117647%,65.882353%,52.156863%);fill-opacity:1;" d="M 121.417969 111.25 C 121.144531 111.042969 120.949219 110.765625 120.832031 110.417969 C 120.53125 109.589844 120.253906 108.757812 120 107.917969 C 119.839844 105.453125 119.339844 103.066406 118.5 100.75 C 115.859375 97.164062 113.414062 93.441406 111.167969 89.582031 C 107.046875 84.238281 103.183594 78.710938 99.582031 73 C 98.453125 72.199219 97.371094 71.339844 96.332031 70.417969 C 91.949219 64.285156 87.476562 58.226562 82.917969 52.25 C 83.324219 51.644531 83.769531 51.0625 84.25 50.5 C 84.625 50.53125 84.929688 50.726562 85.167969 51.082031 C 97.570312 66.726562 110.015625 82.335938 122.5 97.917969 C 124.390625 100.027344 126.277344 102.140625 128.167969 104.25 C 128.277344 104.527344 128.277344 104.804688 128.167969 105.082031 C 127.265625 106.542969 126.125 107.792969 124.75 108.832031 C 123.703125 109.742188 122.589844 110.550781 121.417969 111.25 Z M 121.417969 111.25 "/>
<path style=" stroke:none;fill-rule:evenodd;fill:rgb(74.117647%,66.27451%,52.54902%);fill-opacity:1;" d="M 83.082031 33.417969 C 83.070312 33.820312 82.902344 34.15625 82.582031 34.417969 C 81.144531 35.9375 79.671875 37.4375 78.167969 38.917969 C 76.652344 41.335938 75.097656 43.722656 73.5 46.082031 C 71.570312 47.457031 69.738281 48.957031 68 50.582031 C 63.109375 57.25 58.222656 63.917969 53.332031 70.582031 C 52.210938 71.519531 51.070312 72.4375 49.917969 73.332031 C 46.363281 79.132812 42.503906 84.71875 38.332031 90.082031 C 36.164062 93.753906 33.832031 97.308594 31.332031 100.75 C 30.492188 103.066406 29.992188 105.453125 29.832031 107.917969 C 29.582031 109.140625 29.109375 110.25 28.417969 111.25 C 26.386719 109.859375 24.46875 108.304688 22.667969 106.582031 C 22.269531 106.128906 21.933594 105.628906 21.667969 105.082031 C 21.554688 104.804688 21.554688 104.527344 21.667969 104.25 C 23.554688 102.140625 25.445312 100.027344 27.332031 97.917969 C 41.332031 80.359375 55.332031 62.804688 69.332031 45.25 C 73.160156 40.589844 77.046875 35.980469 81 31.417969 C 81.671875 32.117188 82.367188 32.785156 83.082031 33.417969 Z M 83.082031 33.417969 "/>
<path style=" stroke:none;fill-rule:evenodd;fill:rgb(95.686275%,95.686275%,95.686275%);fill-opacity:1;" d="M 65.082031 73.082031 C 65.546875 73.246094 66.046875 73.300781 66.582031 73.25 C 66.582031 74.359375 66.582031 75.472656 66.582031 76.582031 C 67.695312 76.582031 68.804688 76.582031 69.917969 76.582031 C 69.917969 77.695312 69.917969 78.804688 69.917969 79.917969 C 71.027344 79.917969 72.140625 79.917969 73.25 79.917969 C 73.25 81.027344 73.25 82.140625 73.25 83.25 C 74.359375 83.25 75.472656 83.25 76.582031 83.25 C 76.582031 84.359375 76.582031 85.472656 76.582031 86.582031 C 77.695312 86.582031 78.804688 86.582031 79.917969 86.582031 C 79.917969 87.695312 79.917969 88.804688 79.917969 89.917969 C 81.027344 89.917969 82.140625 89.917969 83.25 89.917969 C 83.25 91.027344 83.25 92.140625 83.25 93.25 C 84.359375 93.25 85.472656 93.25 86.582031 93.25 C 86.582031 94.359375 86.582031 95.472656 86.582031 96.582031 C 87.695312 96.582031 88.804688 96.582031 89.917969 96.582031 C 89.917969 97.695312 89.917969 98.804688 89.917969 99.917969 C 91.027344 99.917969 92.140625 99.917969 93.25 99.917969 C 93.25 101.027344 93.25 102.140625 93.25 103.25 C 94.359375 103.25 95.472656 103.25 96.582031 103.25 C 96.582031 104.359375 96.582031 105.472656 96.582031 106.582031 C 97.695312 106.582031 98.804688 106.582031 99.917969 106.582031 C 99.917969 107.695312 99.917969 108.804688 99.917969 109.917969 C 101.027344 109.917969 102.140625 109.917969 103.25 109.917969 C 103.25 108.804688 103.25 107.695312 103.25 106.582031 C 104.359375 106.582031 105.472656 106.582031 106.582031 106.582031 C 106.582031 105.472656 106.582031 104.359375 106.582031 103.25 C 105.472656 103.25 104.359375 103.25 103.25 103.25 C 103.25 102.140625 103.25 101.027344 103.25 99.917969 C 102.140625 99.917969 101.027344 99.917969 99.917969 99.917969 C 99.917969 98.804688 99.917969 97.695312 99.917969 96.582031 C 100.894531 96.636719 101.835938 96.582031 102.75 96.417969 C 104.300781 98.554688 105.828125 100.71875 107.332031 102.917969 C 107.191406 105.371094 106.914062 107.816406 106.5 110.25 C 106.390625 111.25 106.390625 112.25 106.5 113.25 C 107.234375 115.886719 108.59375 118.109375 110.582031 119.917969 C 104.804688 119.917969 99.027344 119.917969 93.25 119.917969 C 93.25 118.804688 93.25 117.695312 93.25 116.582031 C 92.140625 116.582031 91.027344 116.582031 89.917969 116.582031 C 89.917969 115.472656 89.917969 114.359375 89.917969 113.25 C 88.804688 113.25 87.695312 113.25 86.582031 113.25 C 86.582031 112.140625 86.582031 111.027344 86.582031 109.917969 C 85.472656 109.917969 84.359375 109.917969 83.25 109.917969 C 83.25 108.804688 83.25 107.695312 83.25 106.582031 C 82.140625 106.582031 81.027344 106.582031 79.917969 106.582031 C 79.917969 105.472656 79.917969 104.359375 79.917969 103.25 C 78.804688 103.25 77.695312 103.25 76.582031 103.25 C 76.582031 102.140625 76.582031 101.027344 76.582031 99.917969 C 75.472656 99.917969 74.359375 99.917969 73.25 99.917969 C 73.25 98.804688 73.25 97.695312 73.25 96.582031 C 72.140625 96.582031 71.027344 96.582031 69.917969 96.582031 C 69.917969 95.472656 69.917969 94.359375 69.917969 93.25 C 68.804688 93.25 67.695312 93.25 66.582031 93.25 C 66.582031 92.140625 66.582031 91.027344 66.582031 89.917969 C 65.472656 89.917969 64.359375 89.917969 63.25 89.917969 C 63.25 88.804688 63.25 87.695312 63.25 86.582031 C 62.140625 86.582031 61.027344 86.582031 59.917969 86.582031 C 59.917969 85.472656 59.917969 84.359375 59.917969 83.25 C 58.796875 83.207031 57.683594 83.261719 56.582031 83.417969 C 59.296875 79.871094 62.128906 76.425781 65.082031 73.082031 Z M 65.082031 73.082031 "/>
<path style=" stroke:none;fill-rule:evenodd;fill:rgb(96.862745%,96.862745%,96.862745%);fill-opacity:1;" d="M 93.25 119.917969 C 75.25 119.917969 57.25 119.917969 39.25 119.917969 C 41.296875 117.992188 42.714844 115.660156 43.5 112.917969 C 43.167969 109.582031 42.832031 106.25 42.5 102.917969 C 45.507812 98.628906 48.453125 94.296875 51.332031 89.917969 C 53.085938 87.738281 54.835938 85.570312 56.582031 83.417969 C 57.683594 83.261719 58.796875 83.207031 59.917969 83.25 C 59.917969 84.359375 59.917969 85.472656 59.917969 86.582031 C 61.027344 86.582031 62.140625 86.582031 63.25 86.582031 C 63.25 87.695312 63.25 88.804688 63.25 89.917969 C 64.359375 89.917969 65.472656 89.917969 66.582031 89.917969 C 66.582031 91.027344 66.582031 92.140625 66.582031 93.25 C 67.695312 93.25 68.804688 93.25 69.917969 93.25 C 69.917969 94.359375 69.917969 95.472656 69.917969 96.582031 C 71.027344 96.582031 72.140625 96.582031 73.25 96.582031 C 73.25 97.695312 73.25 98.804688 73.25 99.917969 C 74.359375 99.917969 75.472656 99.917969 76.582031 99.917969 C 76.582031 101.027344 76.582031 102.140625 76.582031 103.25 C 77.695312 103.25 78.804688 103.25 79.917969 103.25 C 79.917969 104.359375 79.917969 105.472656 79.917969 106.582031 C 81.027344 106.582031 82.140625 106.582031 83.25 106.582031 C 83.25 107.695312 83.25 108.804688 83.25 109.917969 C 84.359375 109.917969 85.472656 109.917969 86.582031 109.917969 C 86.582031 111.027344 86.582031 112.140625 86.582031 113.25 C 87.695312 113.25 88.804688 113.25 89.917969 113.25 C 89.917969 114.359375 89.917969 115.472656 89.917969 116.582031 C 91.027344 116.582031 92.140625 116.582031 93.25 116.582031 C 93.25 117.695312 93.25 118.804688 93.25 119.917969 Z M 93.25 119.917969 "/>
<path style=" stroke:none;fill-rule:evenodd;fill:rgb(95.686275%,95.686275%,95.686275%);fill-opacity:1;" d="M 110.082031 79.917969 C 111.140625 79.917969 112.195312 79.917969 113.25 79.917969 C 113.25 81.027344 113.25 82.140625 113.25 83.25 C 114.359375 83.25 115.472656 83.25 116.582031 83.25 C 116.582031 84.359375 116.582031 85.472656 116.582031 86.582031 C 117.695312 86.582031 118.804688 86.582031 119.917969 86.582031 C 119.917969 87.695312 119.917969 88.804688 119.917969 89.917969 C 121.027344 89.917969 122.140625 89.917969 123.25 89.917969 C 123.25 91.027344 123.25 92.140625 123.25 93.25 C 124.359375 93.25 125.472656 93.25 126.582031 93.25 C 126.582031 94.359375 126.582031 95.472656 126.582031 96.582031 C 127.695312 96.582031 128.804688 96.582031 129.917969 96.582031 C 129.917969 97.695312 129.917969 98.804688 129.917969 99.917969 C 131.027344 99.917969 132.140625 99.917969 133.25 99.917969 C 133.25 101.027344 133.25 102.140625 133.25 103.25 C 134.359375 103.25 135.472656 103.25 136.582031 103.25 C 136.582031 104.359375 136.582031 105.472656 136.582031 106.582031 C 137.695312 106.582031 138.804688 106.582031 139.917969 106.582031 C 139.917969 107.695312 139.917969 108.804688 139.917969 109.917969 C 141.027344 109.917969 142.140625 109.917969 143.25 109.917969 C 143.25 111.027344 143.25 112.140625 143.25 113.25 C 144.359375 113.25 145.472656 113.25 146.582031 113.25 C 146.582031 114.359375 146.582031 115.472656 146.582031 116.582031 C 147.695312 116.582031 148.804688 116.582031 149.917969 116.582031 C 149.917969 117.695312 149.917969 118.804688 149.917969 119.917969 C 137.195312 119.917969 124.472656 119.917969 111.75 119.917969 C 113.671875 119.011719 115.503906 117.925781 117.25 116.667969 C 120.367188 114.046875 123.535156 111.492188 126.75 109 C 127.679688 108.183594 128.484375 107.265625 129.167969 106.25 C 129.632812 105.324219 129.6875 104.382812 129.332031 103.417969 C 127.726562 101.535156 126.0625 99.699219 124.332031 97.917969 C 119.546875 91.9375 114.796875 85.9375 110.082031 79.917969 Z M 110.082031 79.917969 "/>
</g>
</svg>
